# AST/ASF file generated using VICON BodyLanguage
# -----------------------------------------------
:version 1.10
:name VICON
:units
  mass 1.0
  length 0.45
  angle deg
:documentation
   .ast/.asf automatically generated from VICON data using
   VICON BodyBuilder and BodyLanguage model FoxedUp or BRILLIANT.MOD
:root
   order TX TY TZ RX RY RZ
   axis XYZ
   position 0 0 0  
   orientation 0 0 0 
:bonedata
  begin
     id 1 
     name lhipjoint
     direction 0.662698 -0.695252 0.27831 
     length 2.53073 
     axis 0 0 0  XYZ
  end
  begin
     id 2 
     name lfemur
     direction 0.34202 -0.939693 0  
     length 7.16147  
     axis 0 0 20  XYZ
    dof rx ry rz
    limits (-160.0 20.0)
           (-70.0 70.0)
           (-60.0 70.0)
  end
  begin
     id 3 
     name ltibia
     direction 0.34202 -0.939693 0   
     length 7.63967   
     axis 0 0 20   XYZ
    dof rx
    limits (-10.0 170.0)
  end
  begin
     id 4 
     name lfoot
     direction 0.0938457 -0.257721 0.961651   
     length 1.89793   
     axis -90 7.62852e-016 20   XYZ
    dof rx rz
    limits (-45.0 90.0)
           (-70.0 20.0)
  end
  begin
     id 5 
     name ltoes
     direction -0.00116841 -0.0030592 0.999995   
     length 0.955649   
     axis -90 7.62852e-016 20   XYZ
    dof rx
    limits (-90.0 20.0)
  end
  begin
     id 6 
     name rhipjoint
     direction -0.649445 -0.705948 0.282592   
     length 2.49238  
     axis 0 0 0  XYZ 
  end
  begin
     id 7 
     name rfemur
     direction -0.34202 -0.939693 0   
     length 6.90728   
     axis 0 0 -20   XYZ
    dof rx ry rz
    limits (-160.0 20.0)
           (-70.0 70.0)
           (-70.0 60.0)
  end
  begin
     id 8 
     name rtibia
     direction -0.34202 -0.939693 0   
     length 7.72868   
     axis 0 0 -20   XYZ
    dof rx
    limits (-10.0 170.0)
 end
 begin
     id 9 
     name rfoot
     direction -0.0920068 -0.252865 0.963117   
     length 1.97476  
     axis -90 -7.62852e-016 -20   XYZ
    dof rx rz
    limits (-45.0 90.0)
           (-20.0 70.0)
  end
  begin
     id 10 
     name rtoes
     direction 0.000391322 0.00230649 0.999997   
     length 0.992641   
     axis -90 -7.62852e-016 -20   XYZ
    dof rx
    limits (-90.0 20.0)
  end
  begin
     id 11 
     name lowerback
     direction -0.00875327 0.998321 -0.0572635   
     length 2.20024   
     axis 0 0 0   XYZ
    dof rx ry rz
    limits (-20.0 45.0)
           (-30.0 30.0)
           (-30.0 30.0)
  end
  begin
     id 12 
     name upperback
     direction 0.00753931 0.999972 -0.000360425   
     length 2.20538   
     axis 0 0 0   XYZ
    dof rx ry rz
    limits (-20.0 45.0)
           (-30.0 30.0)
           (-30.0 30.0)
  end
  begin
     id 13 
     name thorax
     direction 0.0117767 0.999601 0.0256663   
     length 2.21508   
     axis 0 0 0   XYZ
    dof rx ry rz
    limits (-20.0 45.0)
           (-30.0 30.0)
           (-30.0 30.0)
  end
  begin
     id 14 
     name lowerneck
     direction 0.060228 0.994909 0.0807986   
     length 1.7607   
     axis 0 0 0   XYZ
    dof rx ry rz
    limits (-20.0 45.0)
           (-30.0 30.0)
           (-30.0 30.0)
  end
  begin
     id 15 
     name upperneck
     direction -0.0563647 0.959594 -0.275685   
     length 1.75612   
     axis 0 0 0   XYZ
    dof rx ry rz
    limits (-20.0 45.0)
           (-30.0 30.0)
           (-30.0 30.0)
  end
  begin
     id 16
     name head
     direction -0.0161544 0.99458 -0.102714  
     length 1.79288  
     axis 0 0 0   XYZ
    dof rx ry rz
    limits (-20.0 45.0)
           (-30.0 30.0)
           (-30.0 30.0)
  end
  begin
     id 17 
     name lclavicle
     direction 0.93913 0.332189 -0.087669  
     length 3.52087  
     axis 0 0 0   XYZ
    dof ry rz
    limits (-20.0 10.0)
           (0.0 20.0)
  end
  begin
     id 18 
     name lhumerus
     direction 1 -4.48974e-011 -2.70836e-027   
     length 5.35289   
     axis -180 -30 -90   XYZ
    dof rx ry rz
    limits (-60.0 90.0)
           (-90.0 90.0)
           (-90.0 90.0)
  end
  begin
     id 19
     name lradius
     direction 1 -4.48961e-011 -9.76021e-027   
     length 3.27727   
     axis -180 -30 -90   XYZ
    dof rx
    limits (-10.0 170.0)
  end
  begin
     id 20
     name lwrist
     direction 1 -4.49103e-011 -2.23668e-026   
     length 1.63864   
     axis 1.44924e-014 90 90   XYZ
    dof ry
    limits (-180.0 0.0)
 end
  begin
     id 21 
     name lhand
     direction 1 3.0697e-005 0.000161777   
     length 0.54443   
     axis 2.85318e-014 90 90   XYZ
    dof rx rz
    limits (-90.0 90.0)
           (-45.0 45.0)
  end
  begin
     id 22 
     name lfingers
     direction 1 -4.49027e-011 -8.9447e-026   
     length 0.438912   
     axis 5.70628e-014 90 90   XYZ
    dof rx
    limits (0.0 90.0)
  end
  begin
     id 23
     name lthumb
     direction 0.707058 2.6516e-005 0.707156   
     length 0.630274   
     axis -90 45 -3.53137e-014   XYZ
    dof rx rz
    limits (-45.0 45.0)
           (-45.0 45.0)
  end
  begin
     id 24 
     name rclavicle
     direction -0.95274 0.284984 -0.105215   
     length 3.43401  
     axis 0 0 0   XYZ 
    dof ry rz
    limits (-10.0 20.0)
           (-20.0 0.0)
  end
  begin
     id 25 
     name rhumerus
     direction -0.999999 -0.000575019 -0.00106829  
     length 5.52077   
     axis -180 30 90   XYZ
    dof rx ry rz
    limits (-90.0 60.0)
           (-90.0 90.0)
           (-90.0 90.0)
  end
  begin
     id 26 
     name rradius
     direction -1 -4.4879e-011 -6.35415e-027   
     length 3.32364   
     axis -180 30 90   XYZ
    dof rx
    limits (-10.0 170.0)
  end
  begin
     id 27 
     name rwrist
     direction -1 -4.49048e-011 -9.98542e-027   
     length 1.66182   
     axis 6.32482e-015 -90 -90   XYZ
    dof ry
    limits (-180.0 0.0)
  end
  begin
     id 28
     name rhand
     direction -1 -4.48978e-011 -1.99771e-026   
     length 0.732235   
     axis 1.27479e-014 -90 -90   XYZ
    dof rx rz
    limits (-90.0 90.0)
           (-45.0 45.0)
  end
  begin
     id 29
     name rfingers
     direction -1 -4.49144e-011 -3.99245e-026   
     length 0.590347   
     axis 2.5496e-014 -90 -90   XYZ
    dof rx
    limits (0.0 90.0)
  end
  begin
     id 30
     name rthumb
     direction -0.707107 -6.35121e-011 0.707107   
     length 0.847624   
     axis -90 -45 -2.82974e-014   XYZ
    dof rx rz
    limits (-45.0 45.0)
           (-45.0 45.0)
  end
:hierarchy
  begin
    root lhipjoint rhipjoint lowerback
    lhipjoint lfemur
    lfemur ltibia
    ltibia lfoot
    lfoot ltoes
    rhipjoint rfemur
    rfemur rtibia
    rtibia rfoot
    rfoot rtoes
    lowerback upperback
    upperback thorax
    thorax lowerneck lclavicle rclavicle
    lowerneck upperneck
    upperneck head
    lclavicle lhumerus
    lhumerus lradius
    lradius lwrist
    lwrist lhand lthumb
    lhand lfingers
    rclavicle rhumerus
    rhumerus rradius
    rradius rwrist
    rwrist rhand rthumb
    rhand rfingers
  end

#!OML:ASF G:\Work\Work\Patient Classification 1\Elijah\terrain1\Elijah.ASF
:FULLY-SPECIFIED
:DEGREES
3138
root 3.2093 22.7764 -21.1524 892.739 80.9757 161.223
lowerback 7.08294 0.263447 0.31236
upperback 2.06937 0.469558 1.59343
thorax -1.84681 0.258479 1.4241
lowerneck -17.2566 1.96675 6.34203
upperneck 30.7671 2.95064 -4.01794
head 13.3952 1.75973 -2.13016
rclavicle 0 -1.74931e-014
rhumerus -37.9829 9.68885 -83.2072
rradius 39.5523
rwrist -7.60373
rhand -13.7462 20.6541
rfingers 7.12502
rthumb 12.3739 -8.95971
lclavicle 0 -1.74931e-014
lhumerus -46.1223 7.03872 83.6862
lradius 45.1479
lwrist 10.9804
lhand -17.1007 24.7811
lfingers 7.12502
lthumb 9.13814 54.5631
rfemur -23.5779 0.866163 23.2649
rtibia 37.2124
rfoot -20.803 -18.1315
rtoes -29.4598
lfemur -49.3784 0.737914 -24.2574
ltibia 60.9517
lfoot -3.83637 -13.5746
ltoes -2.2148
3139
root 3.31057 22.7771 -21.183 892.479 80.8986 160.926
lowerback 6.98133 0.336825 0.656123
upperback 1.95957 0.579906 1.34516
thorax -1.90016 0.310742 0.96592
lowerneck -17.4803 1.66 6.30472
upperneck 30.9744 2.39102 -3.66027
head 13.489 1.56377 -2.07634
rclavicle 2.10712e-014 -2.78299e-014
rhumerus -37.9991 7.87898 -82.9584
rradius 38.7309
rwrist -7.85506
rhand -13.2155 22.4206
rfingers 7.12502
rthumb 12.8855 -7.16164
lclavicle 2.10712e-014 -2.78299e-014
lhumerus -46.1626 6.52662 83.5953
lradius 44.4461
lwrist 10.8872
lhand -16.5504 24.7623
lfingers 7.12502
lthumb 9.66914 54.5203
rfemur -23.2298 -3.49969 23.612
rtibia 36.5943
rfoot -20.7681 -14.393
rtoes -32.2761
lfemur -49.2446 -0.345511 -23.9608
ltibia 58.295
lfoot -3.69118 -13.7386
ltoes -0.549586
3140
root 3.41266 22.7881 -21.2087 892.197 80.837 160.611
lowerback 6.81798 0.13188 0.385913
upperback 1.93034 0.291564 1.53453
thorax -1.83804 0.167628 1.3376
lowerneck -17.3745 1.91715 6.27776
upperneck 30.7668 2.8569 -3.94226
head 13.4118 1.71809 -2.10456
rclavicle -2.66371e-014 2.38542e-015
rhumerus -37.337 5.42529 -81.1864
rradius 37.3471
rwrist 0.601848
rhand -10.0161 24.1966
rfingers 7.12502
rthumb 15.9681 -5.16525
lclavicle -2.66371e-014 2.38542e-015
lhumerus -46.2714 7.37376 83.5844
lradius 43.7152
lwrist 10.7541
lhand -16.7 24.824
lfingers 7.12502
lthumb 9.52476 54.5887
rfemur -22.8494 -7.63439 23.6245
rtibia 35.958
rfoot -22.6248 -9.23557
rtoes -29.6723
lfemur -48.9985 -1.35944 -23.6339
ltibia 55.5431
lfoot -4.04958 -13.941
ltoes -1.90943
3141
root 3.51655 22.8306 -21.2362 891.845 80.86 160.227
lowerback 6.64 -0.0049318 0.569477
upperback 1.87613 0.113842 1.3967
thorax -1.79062 0.0773372 1.10709
lowerneck -17.4296 1.99249 6.25743
upperneck 30.8856 2.902 -3.72015
head 13.4742 1.76637 -2.00665
rclavicle -2.46493e-014 2.38542e-015
rhumerus -37.6753 6.32391 -82.5793
rradius 37.9775
rwrist -4.24757
rhand -12.1241 21.7759
rfingers 7.12502
rthumb 13.9374 -7.73695
lclavicle -2.46493e-014 2.38542e-015
lhumerus -46.359 7.73058 83.2289
lradius 42.9479
lwrist 10.4581
lhand -16.4445 24.8838
lfingers 7.12502
lthumb 9.77128 54.6371
rfemur -22.0854 -5.62807 23.0683
rtibia 35.4628
rfoot -23.1524 -8.9469
rtoes -22.8134
lfemur -48.5039 -2.22792 -23.3346
ltibia 52.5891
lfoot -4.48537 -14.0106
ltoes -3.5472
3142
root 3.62461 22.8526 -21.2649 891.411 80.9574 159.788
lowerback 6.42902 -0.00220431 0.510257
upperback 1.84241 0.110329 1.44164
thorax -1.70805 0.0749369 1.18679
lowerneck -17.4562 1.94849 6.12061
upperneck 30.9352 2.87986 -3.7076
head 13.4966 1.74355 -1.98203
rclavicle 1.03368e-014 1.11319e-014
rhumerus -37.7565 5.86131 -82.4532
rradius 37.6987
rwrist -4.747
rhand -12.3624 22.1315
rfingers 7.12502
rthumb 13.7077 -7.39699
lclavicle 1.03368e-014 1.11319e-014
lhumerus -46.419 8.10438 83.2265
lradius 42.2183
lwrist 10.0328
lhand -15.6741 24.9304
lfingers 7.12502
lthumb 10.5146 54.6475
rfemur -21.1041 -1.51819 22.6866
rtibia 34.8544
rfoot -22.9071 -11.9915
rtoes -20.9385
lfemur -47.9669 -3.02042 -23.0444
ltibia 49.7179
lfoot -4.4606 -13.8308
ltoes -3.12078
3143
root 3.73623 22.8556 -21.2904 890.929 81.0821 159.323
lowerback 6.17684 -0.0126087 0.470514
upperback 1.8488 0.0886797 1.43136
thorax -1.56079 0.0634177 1.19996
lowerneck -17.5472 2.03809 5.8461
upperneck 30.9233 3.02757 -3.52363
head 13.5124 1.79688 -1.83636
rclavicle 1.11319e-014 -2.70347e-014
rhumerus -37.7615 5.40582 -82.51
rradius 37.4418
rwrist -3.58107
rhand -13.4472 21.4678
rfingers 7.12502
rthumb 12.6621 -8.12833
lclavicle 1.11319e-014 -2.70347e-014
lhumerus -46.4553 8.37464 83.1894
lradius 41.5555
lwrist 9.78033
lhand -15.6606 25.1939
lfingers 7.12502
lthumb 10.5276 54.9103
rfemur -20.4731 -4.23752 22.7188
rtibia 34.2203
rfoot -23.414 -9.05196
rtoes -20.867
lfemur -47.4427 -3.77297 -22.7362
ltibia 47.0601
lfoot -4.52232 -13.6016
ltoes -2.62574
3144
root 3.84676 22.8677 -21.3098 890.439 81.1929 158.86
lowerback 5.99313 -0.0555152 0.225756
upperback 1.84004 0.0165468 1.54943
thorax -1.46621 0.0271327 1.46397
lowerneck -17.6102 2.08311 5.76555
upperneck 30.9323 3.11596 -3.53644
head 13.5338 1.82196 -1.81269
rclavicle 1.98785e-015 -1.74931e-014
rhumerus -37.6903 4.81477 -82.2034
rradius 37.0838
rwrist -2.88841
rhand -12.955 21.9771
rfingers 7.12502
rthumb 13.1366 -7.58913
lclavicle 1.98785e-015 -1.74931e-014
lhumerus -46.5148 8.74083 83.2872
lradius 40.8344
lwrist 9.42168
lhand -15.6864 25.038
lfingers 7.12502
lthumb 10.5027 54.7557
rfemur -19.5832 -3.84428 22.6148
rtibia 33.4478
rfoot -23.3885 -9.22112
rtoes -20.0975
lfemur -46.919 -4.44183 -22.4317
ltibia 44.6811
lfoot -5.11246 -13.3184
ltoes -3.48497
3145
root 3.95649 22.8691 -21.3283 889.911 81.3181 158.38
lowerback 5.89269 -0.112706 0.0370179
upperback 1.79951 -0.0710922 1.61446
thorax -1.44941 -0.0170305 1.64302
lowerneck -17.5612 2.32913 5.634
upperneck 30.8451 3.5334 -3.59144
head 13.5098 1.97769 -1.74119
rclavicle 3.18055e-015 -3.97569e-014
rhumerus -37.792 4.53014 -82.1584
rradius 36.9347
rwrist -2.66528
rhand -13.0713 21.6552
rfingers 7.12502
rthumb 13.0245 -7.9182
lclavicle 3.18055e-015 -3.97569e-014
lhumerus -46.5997 9.13272 83.1921
lradius 40.0887
lwrist 8.99858
lhand -14.9289 24.5425
lfingers 7.12502
lthumb 11.2333 54.2217
rfemur -19.0381 -6.07962 22.5903
rtibia 33.0903
rfoot -23.9 -6.65729
rtoes -18.488
lfemur -46.3732 -5.08836 -22.1252
ltibia 42.4931
lfoot -5.75189 -12.608
ltoes -4.91026
